<mxfile host="Electron" agent="Mozilla/5.0 (Windows NT 10.0; Win64; x64) AppleWebKit/537.36 (KHTML, like Gecko) draw.io/24.7.17 Chrome/128.0.6613.36 Electron/32.0.1 Safari/537.36" version="24.7.17">
  <diagram name="1 oldal" id="osthFVFoLzH-frokFGTB">
    <mxGraphModel dx="856" dy="521" grid="1" gridSize="10" guides="1" tooltips="1" connect="1" arrows="1" fold="1" page="1" pageScale="1" pageWidth="827" pageHeight="1169" math="0" shadow="0">
      <root>
        <mxCell id="0" />
        <mxCell id="1" parent="0" />
        <mxCell id="wH6veG9tBR207DiI4e0H-1" value="User" style="swimlane;childLayout=stackLayout;horizontal=1;startSize=50;horizontalStack=0;rounded=1;fontSize=14;fontStyle=0;strokeWidth=2;resizeParent=0;resizeLast=1;shadow=0;dashed=0;align=center;arcSize=4;whiteSpace=wrap;html=1;" parent="1" vertex="1">
          <mxGeometry x="400" y="120" width="160" height="150" as="geometry" />
        </mxCell>
        <mxCell id="wH6veG9tBR207DiI4e0H-2" value="&lt;div&gt;+name: string&lt;/div&gt;+username: string&lt;div&gt;+email: string&lt;/div&gt;&lt;div&gt;+password: string&lt;/div&gt;&lt;div&gt;+role: ENUM (=NORMAL)&lt;/div&gt;" style="align=left;strokeColor=none;fillColor=none;spacingLeft=4;fontSize=12;verticalAlign=top;resizable=0;rotatable=0;part=1;html=1;" parent="wH6veG9tBR207DiI4e0H-1" vertex="1">
          <mxGeometry y="50" width="160" height="100" as="geometry" />
        </mxCell>
        <mxCell id="wH6veG9tBR207DiI4e0H-3" value="Customer" style="swimlane;childLayout=stackLayout;horizontal=1;startSize=50;horizontalStack=0;rounded=1;fontSize=14;fontStyle=0;strokeWidth=2;resizeParent=0;resizeLast=1;shadow=0;dashed=0;align=center;arcSize=4;whiteSpace=wrap;html=1;" parent="1" vertex="1">
          <mxGeometry x="165" y="120" width="170" height="170" as="geometry" />
        </mxCell>
        <mxCell id="wH6veG9tBR207DiI4e0H-4" value="+name: string&lt;div&gt;+birthdate: date&lt;/div&gt;&lt;div&gt;+email: string&lt;/div&gt;&lt;div&gt;+mobile number: string&lt;/div&gt;&lt;div&gt;+in_request: boolean (=true)&lt;/div&gt;&lt;div&gt;+banned: boolean (=false)&lt;/div&gt;" style="align=left;strokeColor=none;fillColor=none;spacingLeft=4;fontSize=12;verticalAlign=top;resizable=0;rotatable=0;part=1;html=1;" parent="wH6veG9tBR207DiI4e0H-3" vertex="1">
          <mxGeometry y="50" width="170" height="120" as="geometry" />
        </mxCell>
        <mxCell id="wH6veG9tBR207DiI4e0H-5" value="Room" style="swimlane;childLayout=stackLayout;horizontal=1;startSize=50;horizontalStack=0;rounded=1;fontSize=14;fontStyle=0;strokeWidth=2;resizeParent=0;resizeLast=1;shadow=0;dashed=0;align=center;arcSize=4;whiteSpace=wrap;html=1;" parent="1" vertex="1">
          <mxGeometry x="590" y="340" width="160" height="120" as="geometry" />
        </mxCell>
        <mxCell id="wH6veG9tBR207DiI4e0H-6" value="&lt;div&gt;id: int (=autoincrement)&lt;/div&gt;+number: string&lt;div&gt;+room_type_id: int&lt;/div&gt;" style="align=left;strokeColor=none;fillColor=none;spacingLeft=4;fontSize=12;verticalAlign=top;resizable=0;rotatable=0;part=1;html=1;" parent="wH6veG9tBR207DiI4e0H-5" vertex="1">
          <mxGeometry y="50" width="160" height="70" as="geometry" />
        </mxCell>
        <mxCell id="wH6veG9tBR207DiI4e0H-7" value="RoomType" style="swimlane;childLayout=stackLayout;horizontal=1;startSize=50;horizontalStack=0;rounded=1;fontSize=14;fontStyle=0;strokeWidth=2;resizeParent=0;resizeLast=1;shadow=0;dashed=0;align=center;arcSize=4;whiteSpace=wrap;html=1;" parent="1" vertex="1">
          <mxGeometry x="590" y="510" width="160" height="140" as="geometry" />
        </mxCell>
        <mxCell id="wH6veG9tBR207DiI4e0H-8" value="&lt;div&gt;+id: int (=autoincrement)&lt;/div&gt;+name: string&lt;div&gt;+beds: int&lt;div&gt;+daily_price: int&lt;/div&gt;&lt;/div&gt;&lt;div&gt;+description: string&lt;/div&gt;" style="align=left;strokeColor=none;fillColor=none;spacingLeft=4;fontSize=12;verticalAlign=top;resizable=0;rotatable=0;part=1;html=1;" parent="wH6veG9tBR207DiI4e0H-7" vertex="1">
          <mxGeometry y="50" width="160" height="90" as="geometry" />
        </mxCell>
        <mxCell id="wH6veG9tBR207DiI4e0H-9" style="edgeStyle=orthogonalEdgeStyle;rounded=0;orthogonalLoop=1;jettySize=auto;html=1;exitX=0.5;exitY=1;exitDx=0;exitDy=0;entryX=0.5;entryY=0;entryDx=0;entryDy=0;endArrow=ERone;endFill=0;startArrow=ERmany;startFill=0;" parent="1" source="wH6veG9tBR207DiI4e0H-6" target="wH6veG9tBR207DiI4e0H-7" edge="1">
          <mxGeometry relative="1" as="geometry" />
        </mxCell>
        <mxCell id="wH6veG9tBR207DiI4e0H-11" value="Request" style="swimlane;childLayout=stackLayout;horizontal=1;startSize=50;horizontalStack=0;rounded=1;fontSize=14;fontStyle=0;strokeWidth=2;resizeParent=0;resizeLast=1;shadow=0;dashed=0;align=center;arcSize=4;whiteSpace=wrap;html=1;" parent="1" vertex="1">
          <mxGeometry x="170" y="340" width="160" height="120" as="geometry" />
        </mxCell>
        <mxCell id="wH6veG9tBR207DiI4e0H-12" value="+start_date: date&lt;div&gt;+end_date: date&lt;/div&gt;&lt;div&gt;-price: int&lt;/div&gt;" style="align=left;strokeColor=none;fillColor=none;spacingLeft=4;fontSize=12;verticalAlign=top;resizable=0;rotatable=0;part=1;html=1;" parent="wH6veG9tBR207DiI4e0H-11" vertex="1">
          <mxGeometry y="50" width="160" height="70" as="geometry" />
        </mxCell>
        <mxCell id="wH6veG9tBR207DiI4e0H-13" style="edgeStyle=orthogonalEdgeStyle;rounded=0;orthogonalLoop=1;jettySize=auto;html=1;entryX=1;entryY=0.25;entryDx=0;entryDy=0;startArrow=ERmany;startFill=0;endArrow=ERone;endFill=0;exitX=0;exitY=0.25;exitDx=0;exitDy=0;" parent="1" source="wH6veG9tBR207DiI4e0H-6" target="9Vd9eU7O7Daa9pynRJ1D-5" edge="1">
          <mxGeometry relative="1" as="geometry">
            <mxPoint x="540" y="530" as="sourcePoint" />
          </mxGeometry>
        </mxCell>
        <mxCell id="wH6veG9tBR207DiI4e0H-14" style="edgeStyle=orthogonalEdgeStyle;rounded=0;orthogonalLoop=1;jettySize=auto;html=1;exitX=0.5;exitY=1;exitDx=0;exitDy=0;entryX=0.5;entryY=0;entryDx=0;entryDy=0;endArrow=ERmany;endFill=0;startArrow=ERone;startFill=0;" parent="1" source="wH6veG9tBR207DiI4e0H-4" target="wH6veG9tBR207DiI4e0H-11" edge="1">
          <mxGeometry relative="1" as="geometry" />
        </mxCell>
        <mxCell id="pzXDdgU7UOfX_fnrfGlg-1" style="edgeStyle=orthogonalEdgeStyle;rounded=0;orthogonalLoop=1;jettySize=auto;html=1;endArrow=ERmany;endFill=0;startArrow=ERone;startFill=0;entryX=1;entryY=0.25;entryDx=0;entryDy=0;exitX=0.001;exitY=0.3;exitDx=0;exitDy=0;exitPerimeter=0;" parent="1" source="wH6veG9tBR207DiI4e0H-2" target="wH6veG9tBR207DiI4e0H-4" edge="1">
          <mxGeometry relative="1" as="geometry">
            <mxPoint x="390" y="220" as="sourcePoint" />
            <mxPoint x="360" y="230" as="targetPoint" />
          </mxGeometry>
        </mxCell>
        <mxCell id="iRjWYKLcKOD4x_D2rIXq-2" value="&lt;div style=&quot;text-align: center; margin-bottom: 10px;&quot;&gt;&lt;font style=&quot;font-size: 16px;&quot;&gt;Legend&lt;/font&gt;&lt;/div&gt;-: Optional&lt;div style=&quot;margin-left: 0px;&quot;&gt;+: Mandatory&lt;/div&gt;&lt;div&gt;&lt;br&gt;&lt;/div&gt;&lt;div&gt;attribute&lt;/div&gt;&lt;div&gt;name: type [(default value)]&lt;/div&gt;" style="text;html=1;align=left;verticalAlign=middle;resizable=0;points=[];autosize=1;strokeColor=none;fillColor=none;rounded=1;labelBorderColor=none;textShadow=0;labelBackgroundColor=default;perimeterSpacing=0;strokeWidth=1;glass=0;" parent="1" vertex="1">
          <mxGeometry x="600" y="150" width="170" height="110" as="geometry" />
        </mxCell>
        <mxCell id="9Vd9eU7O7Daa9pynRJ1D-6" value="" style="edgeStyle=orthogonalEdgeStyle;rounded=0;orthogonalLoop=1;jettySize=auto;html=1;exitX=1;exitY=0.25;exitDx=0;exitDy=0;entryX=0;entryY=0.25;entryDx=0;entryDy=0;startArrow=ERmany;startFill=0;endArrow=ERone;endFill=0;" edge="1" parent="1" source="wH6veG9tBR207DiI4e0H-12" target="9Vd9eU7O7Daa9pynRJ1D-5">
          <mxGeometry relative="1" as="geometry">
            <mxPoint x="330" y="408" as="sourcePoint" />
            <mxPoint x="590" y="408" as="targetPoint" />
          </mxGeometry>
        </mxCell>
        <mxCell id="9Vd9eU7O7Daa9pynRJ1D-4" value="Reservation" style="swimlane;childLayout=stackLayout;horizontal=1;startSize=50;horizontalStack=0;rounded=1;fontSize=14;fontStyle=0;strokeWidth=2;resizeParent=0;resizeLast=1;shadow=0;dashed=0;align=center;arcSize=4;whiteSpace=wrap;html=1;" vertex="1" parent="1">
          <mxGeometry x="380" y="340" width="160" height="120" as="geometry" />
        </mxCell>
        <mxCell id="9Vd9eU7O7Daa9pynRJ1D-5" value="+id: int (=autoincrement)&lt;div&gt;+request_id: int&lt;/div&gt;&lt;div&gt;+room_id: int&lt;/div&gt;" style="align=left;strokeColor=none;fillColor=none;spacingLeft=4;fontSize=12;verticalAlign=top;resizable=0;rotatable=0;part=1;html=1;" vertex="1" parent="9Vd9eU7O7Daa9pynRJ1D-4">
          <mxGeometry y="50" width="160" height="70" as="geometry" />
        </mxCell>
      </root>
    </mxGraphModel>
  </diagram>
</mxfile>
